<svg width="244" height="71" viewBox="0 0 244 71" fill="none" xmlns="http://www.w3.org/2000/svg">
<path d="M84.064 57L77.056 18.12H84.4L88.576 44.52L92.464 18.12H100.24L93.136 57H84.064ZM105.154 57V18.12H113.746V57H105.154ZM120.503 57V18.12H137.975V23.976H129.095V33.624H135.863V39.576H129.095V51.192H138.071V57H120.503Z" fill="#F2F2F2"/>
<path d="M142.932 57V18.12H155.988C158.324 18.12 160.244 18.568 161.748 19.464C163.252 20.328 164.372 21.608 165.108 23.304C165.844 24.968 166.212 27 166.212 29.4C166.212 32.408 165.716 34.712 164.724 36.312C163.732 37.88 162.388 38.968 160.692 39.576C158.996 40.184 157.092 40.488 154.98 40.488H151.524V57H142.932ZM151.524 34.488H154.404C155.46 34.488 156.26 34.296 156.804 33.912C157.348 33.528 157.7 32.952 157.86 32.184C158.052 31.416 158.148 30.44 158.148 29.256C158.148 28.264 158.068 27.4 157.908 26.664C157.78 25.896 157.444 25.288 156.9 24.84C156.356 24.392 155.508 24.168 154.356 24.168H151.524V34.488ZM171.314 57V18.12H188.786V23.976H179.906V33.624H186.674V39.576H179.906V51.192H188.882V57H171.314ZM193.743 57V18.12H211.215V23.976H202.335V33.624H209.103V39.576H202.335V51.192H211.311V57H193.743ZM216.171 57V18.12H224.763V34.008L231.291 18.12H239.691L232.491 35.688L240.027 57H231.291L225.675 39.816L224.763 41.352V57H216.171Z" fill="#DF3A3A"/>
<path d="M2.736 57L3.408 18.12H12.624L16.896 40.728L21.504 18.12H30.384L31.056 57H24.96L24.24 31.128L19.728 57H14.304L9.504 30.936L8.928 57H2.736Z" fill="#F2F2F2"/>
<mask id="mask0_100_68" style="mask-type:luminance" maskUnits="userSpaceOnUse" x="36" y="17" width="41" height="41">
<path d="M54.6875 51.625C63.4897 51.625 70.625 44.4897 70.625 35.6875C70.625 26.8853 63.4897 19.75 54.6875 19.75C45.8853 19.75 38.75 26.8853 38.75 35.6875C38.75 44.4897 45.8853 51.625 54.6875 51.625Z" fill="white" stroke="white" stroke-width="4" stroke-linejoin="round"/>
<path d="M59.9912 29.4466C59.2955 28.7491 58.4688 28.196 57.5586 27.819C56.6485 27.4421 55.6728 27.2487 54.6877 27.25C53.7026 27.2487 52.7269 27.4421 51.8168 27.819C50.9066 28.196 50.08 28.7491 49.3843 29.4466" stroke="black" stroke-width="4" stroke-linecap="round" stroke-linejoin="round"/>
<path d="M66.1455 47.1456L74.1002 55.1003" stroke="white" stroke-width="4" stroke-linecap="round" stroke-linejoin="round"/>
</mask>
<g mask="url(#mask0_100_68)">
<path d="M35 16H80V61H35V16Z" fill="#DF3A3A"/>
</g>
</svg>
