<svg width="177" height="71" viewBox="0 0 177 71" fill="none" xmlns="http://www.w3.org/2000/svg">
<path d="M13.2 57.576C10.768 57.576 8.736 57.144 7.104 56.28C5.472 55.416 4.24 54.088 3.408 52.296C2.576 50.472 2.112 48.12 2.016 45.24L9.36 44.136C9.392 45.8 9.536 47.144 9.792 48.168C10.08 49.192 10.464 49.928 10.944 50.376C11.456 50.824 12.064 51.048 12.768 51.048C13.664 51.048 14.24 50.744 14.496 50.136C14.784 49.528 14.928 48.888 14.928 48.216C14.928 46.616 14.544 45.272 13.776 44.184C13.008 43.064 11.968 41.944 10.656 40.824L7.296 37.896C5.824 36.648 4.576 35.24 3.552 33.672C2.56 32.072 2.064 30.104 2.064 27.768C2.064 24.472 3.04 21.96 4.992 20.232C6.944 18.472 9.6 17.592 12.96 17.592C15.04 17.592 16.704 17.944 17.952 18.648C19.232 19.352 20.192 20.28 20.832 21.432C21.504 22.552 21.952 23.752 22.176 25.032C22.432 26.28 22.576 27.48 22.608 28.632L15.216 29.544C15.184 28.392 15.104 27.4 14.976 26.568C14.88 25.704 14.656 25.048 14.304 24.6C13.952 24.12 13.408 23.88 12.672 23.88C11.872 23.88 11.28 24.216 10.896 24.888C10.544 25.56 10.368 26.232 10.368 26.904C10.368 28.344 10.704 29.528 11.376 30.456C12.08 31.352 12.992 32.296 14.112 33.288L17.328 36.12C19.024 37.56 20.448 39.192 21.6 41.016C22.784 42.84 23.376 45.096 23.376 47.784C23.376 49.608 22.96 51.272 22.128 52.776C21.296 54.248 20.112 55.416 18.576 56.28C17.072 57.144 15.28 57.576 13.2 57.576ZM27.5363 57V18.12H45.0083V23.976H36.1283V33.624H42.8963V39.576H36.1283V51.192H45.1043V57H27.5363ZM49.005 57V18.12H66.477V23.976H57.597V33.624H64.365V39.576H57.597V51.192H66.573V57H49.005ZM70.4738 57V18.12H76.5218L84.4898 36.84V18.12H91.5938V57H85.7858L77.8178 36.84V57H70.4738ZM97.38 57V18.12H114.852V23.976H105.972V33.624H112.74V39.576H105.972V51.192H114.948V57H97.38ZM118.705 57L119.377 18.12H128.593L132.865 40.728L137.473 18.12H146.353L147.025 57H140.929L140.209 31.128L135.697 57H130.273L125.473 30.936L124.897 57H118.705ZM150.774 57L158.118 18.12H167.91L175.158 57H167.238L165.942 48.792H160.23L158.886 57H150.774ZM160.998 43.656H165.126L163.062 28.488L160.998 43.656Z" fill="url(#paint0_linear_47_16)"/>
<defs>
<linearGradient id="paint0_linear_47_16" x1="177" y1="-5.00001" x2="7.90638e-06" y2="71" gradientUnits="userSpaceOnUse">
<stop stop-color="#DF3A3A"/>
<stop offset="1" stop-color="#791F1F"/>
</linearGradient>
</defs>
</svg>
